<svg width="335" height="164" viewBox="0 0 335 164" xmlns="http://www.w3.org/2000/svg">
<path d="M0.278524 0H61.8321L132.855 130.031V19.2122H109.46V0H182.154V19.2122H155.137V164H127.842L48.7415 19.2122L49.2986 144.788H72.6945V164H0V144.788H26.7382L26.4597 19.2122H0.278524V0Z"/>
<path d="M273.725 0C293.593 0 308.726 4.3622 319.124 13.0866C329.708 21.811 335 34.5263 335 51.2326C335 68.1245 329.708 81.0255 319.124 89.9355C308.726 98.8455 293.593 103.301 273.725 103.301H248.101V144.788H281.524V164H199.916V144.788H225.819V82V19.2122H199.916V0H273.725ZM273.446 83.8099C298.699 83.8099 311.326 73.0436 311.326 51.511C311.326 29.9785 298.699 19.2122 273.446 19.2122H248.379V83.8099H273.446Z"/>
</svg>
